EMG
version=1
nRows=31
nColumns=17
inDegrees=no
endheader
time	EMG01_right_gast_med	EMG02_right_glut_max	EMG03_left_gast_med	EMG04_left_glut_max	EMG05_right_glut_med	EMG06_right_bic_fem	EMG07_right_rect_fem	EMG08_right_vast_lat	EMG09_right_vast_med	EMG10_right_tens_fasc_lat	EMG11_left_glut_med	EMG12_left_bic_fem	EMG13_left_rect_fem	EMG14_left_vast_lat	EMG15_left_vast_med	EMG16_left_tens_fasc_lat
      0.76000000	    -54.89154053	   -101.86599731	   -119.89118958	    -74.42082214	   -344.54718018	    -44.69342804	      3.92313266	    -54.83327103	    -74.58458710	    -59.32717133	     14.27095795	    -15.14863873	     23.49485397	     27.67975807	   -104.72586060	     95.86506653
      0.77000000	    -39.70502853	   -250.99839783	    -17.53672218	   -139.94041443	   -233.50468445	    -27.79782867	      6.90369511	    -46.50658035	    -69.58054352	   -113.39649963	    -10.96122551	    -12.30787945	      3.56725264	     -9.92421722	    -34.96091080	     94.93745422
      0.78000000	    -42.78720093	   -298.29028320	    167.97996521	   -189.55952454	    -64.11907959	     -4.22910213	      3.50422764	    -33.96402359	    -53.46224976	    -66.80168152	    -17.07636261	    -10.84355545	     16.59499931	      0.64076078	     51.60974503	     51.06517792
      0.79000000	    -28.05668068	   -204.65106201	    -87.88002777	   -239.47047424	     54.80195236	      5.31858826	      5.23753023	    -31.93027496	    -41.76606750	    -94.96038818	     -4.85441160	    -14.77632332	     24.27134323	     -0.79029608	     61.93471146	    -10.77945232
      0.80000000	    -12.73398685	   -139.22961426	    -26.91486168	   -209.31425476	    -28.83007240	     19.61080933	      0.10548788	    -42.66657257	    -16.87257385	   -100.68235016	     -1.17503715	     -3.92123914	      8.67841530	    -20.14000893	     16.63099480	    -98.50836182
      0.81000000	      6.99258995	     20.68158722	      0.48949575	     26.31070328	   -127.13724518	     -5.08751011	     -1.32054758	    -59.41178131	     -8.90793228	   -103.98115540	     11.22151566	      5.69851017	     11.07761097	     -3.81123972	     40.73463440	   -243.50143433
      0.82000000	     11.95759010	     57.51480103	   -551.99749756	    141.57440186	   -160.57312012	     21.45712280	     -6.06493187	    -69.46957397	     15.73677254	    -20.06263351	    -12.60745335	     -6.63725233	     10.59961128	     -9.80902767	     75.08045197	   -333.98809814
      0.83000000	     27.28310394	    126.46771240	     99.57138824	    195.53291321	    -65.76872253	    -22.89636421	     -0.41872740	    -54.11436844	      2.29727268	    104.04637146	     -2.31316805	    -11.54487705	     12.31653118	     -8.96776581	     53.24601746	   -228.10379028
      0.84000000	      8.61511707	    157.76062012	   -116.55577087	    244.38400269	     -2.94777489	     71.11903381	     -6.08727551	    -52.59889984	     15.24026108	    106.44160461	     -2.23377991	      4.12434626	     -7.50797987	    -11.49553585	     10.72322464	    -29.13991928
      0.85000000	     22.46299362	    185.62994385	     75.06996918	    291.00070190	      5.60938311	    -12.69401360	     -1.10523438	    -33.01968384	      6.49307489	    100.95966339	    -35.19462967	     -1.32677686	      4.82662630	     -6.59370708	      9.81628799	    157.08917236
      0.86000000	     10.87204647	    182.84858704	     25.71328354	    281.23663330	    -27.53141403	     26.72402573	     -8.97896004	    -14.27684307	     20.27311516	    136.34152222	     26.44344711	     -3.70616364	      0.37838125	     -4.06181908	     25.17333984	    393.29577637
      0.87000000	     17.72190094	    189.74563599	     12.27869987	    195.16714478	    -31.45160675	     -8.53534222	     -2.87537146	     -2.62879467	     11.30413532	    117.82159424	     -2.88666201	      3.81019497	      1.82042146	     -7.55490685	     10.68362904	    445.55661011
      0.88000000	    -40.56009674	    166.81919861	     -1.88207436	     83.10472870	    -28.13351631	      0.76068604	     -7.10441256	      4.83946705	     19.72977448	    103.13662720	      4.52571297	     -2.46372652	     -6.32836962	     -8.95862198	    -17.77243614	    324.07992554
      0.89000000	    -40.65033340	    119.49516296	    -38.61555481	    -40.10560226	     34.53969574	    -21.77750969	      2.70642042	     23.21992493	     12.99214363	     74.68014526	     -7.78143692	     -5.00051069	     -4.66196728	     -6.91319799	    -36.14625168	    209.70733643
      0.90000000	      2.71713996	     51.28515244	      0.16652921	   -122.99169159	     82.74139404	    -46.07600403	      1.15430379	     22.79687309	      6.09272003	     52.94345474	     -5.28181267	     -7.09455681	      8.80066490	      4.59220982	    -32.00956345	     58.11596680
      0.91000000	     26.07618904	    -13.47258663	     21.46361160	   -148.29685974	     77.13729858	     -3.72331476	      5.17207289	     25.29569244	      0.34312218	     -0.87040746	      8.44076061	     -6.55608749	     -7.59191084	      2.00697446	    -77.74227905	    -50.01591492
      0.92000000	     33.56634521	    -48.23628235	     -0.40731478	   -146.32832336	     31.17748642	    -12.86289883	     -3.95656061	     30.51411819	      2.43126249	    -30.86231422	     -6.32013893	     -8.47048283	     12.18566895	    -16.65881729	    -97.33123016	    -68.02397919
      0.93000000	     31.93024063	    -32.83951569	    -11.76325035	   -123.15876007	     -7.58562231	     72.83195496	      2.83034039	     28.42819023	     14.15013981	    -32.45312500	    -11.48228455	     -7.74315214	      1.12628531	     10.64675808	    -62.80347061	    -85.91239166
      0.94000000	     20.74752235	    -14.95067215	     48.59489822	   -108.33524323	     22.10253716	    -75.78070068	      0.07006574	     23.38444519	     17.56101990	    -19.46728706	     18.35702896	     -5.78951311	    -12.97521400	    -22.88409805	    -16.31389809	   -160.07337952
      0.95000000	     20.37399101	    -45.77939224	    -16.94612122	   -104.95921326	     51.77664948	     25.85402298	      0.09671724	     24.62025642	      9.59747410	     -5.62292576	     -6.10974360	    -13.90397453	     -0.96014404	      0.06897527	     27.53128815	   -204.79733276
      0.96000000	     11.58142090	    -98.52278137	     -8.16611099	    -96.99349213	     58.95037842	     -8.30942726	     -1.96424985	     20.02190971	      8.63256931	     13.55995941	    -61.07896423	    -13.06518173	      4.56544828	     -0.59491301	     65.26463318	    -17.56903648
      0.97000000	     10.68852139	   -122.16992950	     32.10497284	    -54.86312866	     56.43319702	      4.94345045	     -3.98840761	     16.72443390	     20.12812996	     32.53054047	     26.28984261	     -9.30134392	     15.58229256	     14.52974129	     30.95693207	    104.43184662
      0.98000000	      8.10459805	   -113.69063568	   -121.94425964	    -18.41571045	     46.87682343	      8.65218353	    -10.96882629	     16.74328423	     23.89994431	     31.97559166	     -0.16056550	    -10.37220764	    -15.09394264	    -19.21817780	    -29.34404373	    133.47256470
      0.99000000	     -0.20045877	    -57.43089676	    -73.89620209	     38.03188324	     76.04209137	    -45.77041245	     -5.30929375	     12.90475464	     22.02116585	     26.61044502	     -4.17890358	     -3.35443830	      0.39343143	      2.56568956	    -72.14647675	    206.36764526
      1.00000000	      8.20963764	      2.13327312	     -8.07211876	     87.71667480	    132.72927856	     49.65085602	    -12.84091568	      6.29343224	     31.56727219	      9.90086174	      3.62953115	      7.07054520	    -24.44203186	      4.16033268	    -80.09416962	    139.78898621
      1.01000000	      3.55718637	     50.36110687	     -5.52435827	     69.80660248	    148.00038147	    -16.46675491	     -8.85208416	      5.49855757	      7.95904875	      6.89426041	     -3.17691374	     -4.47066307	     14.19895649	     -6.23330259	    -45.62957764	     83.47098541
      1.02000000	      4.31221342	     41.16237640	   -150.27320862	     50.43633652	    122.01281738	    335.35513306	    -11.59112072	     -3.57918096	      0.27550793	     11.95690632	      7.92902470	     -6.64658260	    -14.12661362	    -20.68321037	    -25.78110313	    -11.48997402
      1.03000000	      2.07286930	     21.60064697	    -62.17243195	     14.27777576	     73.44359589	    -21.39977455	     -0.44483089	     -7.81214142	    -21.71779442	      1.03480816	      1.85086060	     -1.68349481	      1.82728589	     11.62423325	     25.03185654	    -26.37203979
      1.04000000	    -12.31221199	     -6.15527582	    -76.40753174	    -32.46677780	    -25.23637390	    -34.95942688	     -0.55345565	    -20.04343033	    -28.43329048	     -6.36098194	    -27.23512840	     -3.43528295	      2.70712280	     -8.29842186	     27.41061592	    -72.67160034
      1.05000000	    -25.54520226	    -27.48649788	   -158.91458130	    -69.07655334	    -58.40302277	    -69.06976318	      4.09398079	     -2.94200253	    -26.81977463	     -9.38094234	     -0.73321509	     -4.89645863	      3.21184826	     18.32760811	     51.93748856	    -48.36131287
      1.06000000	    -25.43551445	    -47.68836975	    401.92050171	    -72.57529449	     34.77220917	    -14.28200150	      6.27930260	    -21.25180054	     -9.89733028	    -11.07306099	     -5.26235199	     -9.69711971	    -15.27462101	     10.65697289	     43.02808380	    -49.59941101
